#!OML:ASF F:\VICON\USERDATA\INSTALL\Justin_Nancy\Justin_Nancy.ASF
:FULLY-SPECIFIED
:DEGREES
300
root 5.81534 17.2378 7.639 157.703 -81.4555 -150.664
lowerback 8.13792 1.20786 6.1197
upperback 0.237523 2.21966 2.89673
thorax -4.20426 0.966919 -0.674439
lowerneck -15.3979 -4.34998 -8.34301
upperneck 24.2253 -5.84354 5.7884
head 10.7584 -2.89518 2.6467
rclavicle -9.14409e-015 -2.70347e-014
rhumerus -27.3756 -0.391752 -86.2315
rradius 34.9311
rwrist 0.470587
rhand -13.7019 10.8148
rfingers 7.12502
rthumb 12.4166 -18.7964
lclavicle -9.14409e-015 -2.70347e-014
lhumerus -28.5949 13.0766 78.5364
lradius 29.3863
lwrist -5.54645
lhand -18.7977 27.6664
lfingers 7.12502
lthumb 7.50041 57.5134
rfemur 15.6798 8.47856 33.2653
rtibia 1.59028e-014
rfoot -10.1021 5.51332
rtoes 13.9021
lfemur -35.7024 -8.33812 -6.04189
ltibia 22.8061
lfoot -14.3441 12.0719
ltoes 5.39421
301
root 5.67669 17.2311 7.68459 157.913 -81.421 -150.85
lowerback 8.09012 1.211 5.99461
upperback 0.176387 2.21511 2.98594
thorax -4.24992 0.965634 -0.511075
lowerneck -15.4739 -4.40748 -8.58342
upperneck 24.4687 -5.91474 5.92326
head 10.8821 -2.93717 2.72654
rclavicle -1.19271e-014 7.95139e-016
rhumerus -27.6588 -0.547305 -85.6247
rradius 34.5906
rwrist 0.180688
rhand -13.4861 10.8688
rfingers 7.12502
rthumb 12.6245 -18.7297
lclavicle -1.19271e-014 7.95139e-016
lhumerus -28.5042 13.1302 78.7709
lradius 29.5975
lwrist -5.6953
lhand -18.5104 27.6987
lfingers 7.12502
lthumb 7.77776 57.5357
rfemur 16.1507 8.45315 32.9928
rtibia 2.22639e-014
rfoot -9.66687 6.12487
rtoes 16.4125
lfemur -35.8669 -7.33862 -7.03016
ltibia 23.6137
lfoot -13.325 10.747
ltoes 5.18922
302
root 5.52041 17.2224 7.69883 164.423 -81.8217 -157.408
lowerback 7.74611 1.17792 4.41875
upperback 0.1464 2.0162 2.9289
thorax -4.14873 0.90745 0.335931
lowerneck -15.4252 -4.40835 -8.76845
upperneck 24.5645 -5.88844 5.94328
head 10.9132 -2.9441 2.77018
rclavicle -1.19271e-014 7.15625e-015
rhumerus -27.9933 -0.739714 -85.063
rradius 34.1207
rwrist 0.502542
rhand -12.8604 11.3802
rfingers 7.12502
rthumb 13.2277 -18.1801
lclavicle -1.19271e-014 7.15625e-015
lhumerus -28.532 13.7917 78.8155
lradius 29.6725
lwrist -6.28835
lhand -18.5711 27.4639
lfingers 7.12502
lthumb 7.71913 57.303
rfemur 16.7344 8.3108 31.7517
rtibia -1.27222e-014
rfoot -9.39101 6.59972
rtoes 16.131
lfemur -35.7748 -5.56544 -9.62882
ltibia 24.2466
lfoot -11.827 8.99179
ltoes 1.57338
303
root 5.36067 17.2025 7.75007 158.541 -81.3337 -151.714
lowerback 7.74013 1.07602 5.44295
upperback 0.18434 1.9638 3.21808
thorax -4.0839 0.857978 0.0724894
lowerneck -15.3026 -4.33341 -8.75983
upperneck 24.5147 -5.77061 5.85593
head 10.8574 -2.90311 2.7553
rclavicle -1.98785e-014 2.8625e-014
rhumerus -28.2939 -1.8378 -84.4866
rradius 33.5408
rwrist 2.19872
rhand -12.4554 11.781
rfingers 7.12502
rthumb 13.6181 -17.7535
lclavicle -1.98785e-014 2.8625e-014
lhumerus -28.4378 14.185 78.8483
lradius 29.5645
lwrist -6.78674
lhand -18.7546 27.3463
lfingers 7.12502
lthumb 7.542 57.1918
rfemur 17.4863 8.36079 32.5968
rtibia 2.54444e-014
rfoot -8.84663 7.0795
rtoes 13.9949
lfemur -35.4425 -4.42284 -9.7855
ltibia 24.8195
lfoot -10.2782 8.05319
ltoes -4.57686
304
root 5.19089 17.1995 7.75727 163.626 -81.6425 -157.102
lowerback 7.43512 1.07503 4.18364
upperback 0.302507 1.8315 3.01873
thorax -3.8261 0.827163 0.5876
lowerneck -15.2456 -4.31607 -8.46624
upperneck 24.4899 -5.80361 5.75483
head 10.8262 -2.90464 2.66467
rclavicle -1.15295e-014 1.66979e-014
rhumerus -28.6841 -3.20943 -84.1041
rradius 33.1968
rwrist 3.54917
rhand -12.8018 11.5953
rfingers 7.12502
rthumb 13.2843 -17.9614
lclavicle -1.15295e-014 1.66979e-014
lhumerus -28.1864 14.1629 78.8943
lradius 29.4601
lwrist -6.76427
lhand -18.7248 27.295
lfingers 7.12502
lthumb 7.57081 57.1395
rfemur 18.3733 8.19647 31.6112
rtibia 2.22639e-014
rfoot -8.32768 7.64847
rtoes 12.2026
lfemur -34.9091 -4.10797 -11.2805
ltibia 25.3704
lfoot -9.14795 6.04403
ltoes -4.45987
305
root 5.03612 17.1787 7.8209 158.704 -81.0568 -152.413
lowerback 7.67948 1.06702 5.3641
upperback 0.2678 1.93405 3.18026
thorax -3.96488 0.848349 0.0820415
lowerneck -15.2463 -4.25474 -8.61328
upperneck 24.7684 -5.76082 5.94815
head 10.9367 -2.88356 2.76858
rclavicle -1.14301e-014 -1.66979e-014
rhumerus -29.2488 -3.55436 -83.8021
rradius 32.9933
rwrist 3.53455
rhand -12.9698 11.419
rfingers 7.12502
rthumb 13.1223 -18.1481
lclavicle -1.14301e-014 -1.66979e-014
lhumerus -28.1126 14.0785 79.0465
lradius 29.459
lwrist -6.50719
lhand -18.8986 27.364
lfingers 7.12502
lthumb 7.403 57.2144
rfemur 19.1573 8.40382 32.2142
rtibia -1.27222e-014
rfoot -7.15047 8.56536
rtoes 13.7484
lfemur -35.0406 -2.23306 -12.0413
ltibia 26.392
lfoot -6.54001 3.93782
ltoes -22.0185
306
root 4.86314 17.2282 7.83924 163.914 -81.4209 -157.841
lowerback 7.45584 0.909421 4.01023
upperback 0.254293 1.60327 3.13208
thorax -3.90034 0.71608 0.825393
lowerneck -15.3666 -4.07023 -8.88625
upperneck 25.2371 -5.49904 6.0862
head 11.1256 -2.78358 2.90736
rclavicle 2.11706e-014 2.22639e-014
rhumerus -29.7042 -3.505 -83.5304
rradius 32.6831
rwrist 3.11937
rhand -13.3172 10.976
rfingers 7.12502
rthumb 12.7874 -18.6124
lclavicle 2.11706e-014 2.22639e-014
lhumerus -28.226 14.7662 79.103
lradius 29.4067
lwrist -6.92375
lhand -18.3757 27.0135
lfingers 7.12502
lthumb 7.90774 56.8456
rfemur 19.887 8.23872 31.0777
rtibia -2.54444e-014
rfoot -6.34907 9.0739
rtoes 12.0753
lfemur -34.4661 -7.48608 -10.3205
ltibia 26.9448
lfoot -6.91763 5.55496
ltoes 7.61756
307
root 4.70673 17.2355 7.89307 160.33 -81.0293 -154.329
lowerback 7.58083 0.758606 4.57601
upperback 0.141403 1.46593 3.48247
thorax -4.08585 0.63047 0.886732
lowerneck -15.3911 -3.95069 -9.08426
upperneck 25.5722 -5.24246 5.85846
head 11.2341 -2.72246 2.89809
rclavicle -9.83984e-015 2.78299e-014
rhumerus -30.0722 -4.28817 -83.0644
rradius 32.1926
rwrist 3.17598
rhand -14.4747 10.5047
rfingers 7.12502
rthumb 11.6713 -19.1503
lclavicle -9.83984e-015 2.78299e-014
lhumerus -28.4804 15.8167 79.3169
lradius 29.3707
lwrist -7.60417
lhand -17.5917 26.4151
lfingers 7.12502
lthumb 8.66437 56.2172
rfemur 20.4258 8.34189 31.5635
rtibia 6.99722e-014
rfoot -5.25565 9.44127
rtoes 8.77302
lfemur -34.2447 -8.31244 -9.37995
ltibia 27.3629
lfoot -6.61337 5.62075
ltoes 11.5864
308
root 4.53549 17.2546 7.90753 166.743 -81.3215 -160.832
lowerback 7.36405 0.814347 3.01165
upperback -0.00352512 1.41288 3.39281
thorax -4.15068 0.641044 1.67611
lowerneck -15.3925 -3.95169 -9.40038
upperneck 25.9582 -5.23753 5.99479
head 11.3944 -2.7464 3.00745
rclavicle 1.32192e-014 0
rhumerus -30.6517 -5.21768 -82.6017
rradius 31.7334
rwrist 2.47122
rhand -15.938 10.0499
rfingers 7.12502
rthumb 10.26 -19.6799
lclavicle 1.32192e-014 0
lhumerus -28.5999 16.3216 79.6261
lradius 29.2085
lwrist -8.38711
lhand -17.5666 26.3164
lfingers 7.12502
lthumb 8.68858 56.1176
rfemur 21.0051 8.30885 30.1937
rtibia 8.26944e-014
rfoot -3.56705 10.0459
rtoes 9.19617
lfemur -33.8984 -6.93845 -11.5869
ltibia 27.4968
lfoot -5.21083 4.14363
ltoes 2.99785
309
root 4.36045 17.2777 7.92036 174.802 -81.5159 -169.045
lowerback 7.05258 0.950148 1.50547
upperback 0.000485008 1.45889 2.97303
thorax -3.99747 0.700772 2.08333
lowerneck -15.4747 -4.039 -9.29635
upperneck 26.1629 -5.46865 6.21086
head 11.5126 -2.81845 3.03723
rclavicle 4.17448e-015 4.13472e-014
rhumerus -31.2357 -6.28492 -82.3682
rradius 31.4053
rwrist 2.0331
rhand -16.6187 9.6192
rfingers 7.12502
rthumb 9.60322 -20.1419
lclavicle 4.17448e-015 4.13472e-014
lhumerus -28.3429 16.4855 79.6246
lradius 28.9472
lwrist -9.35422
lhand -17.7327 26.3751
lfingers 7.12502
lthumb 8.52829 56.1829
rfemur 21.6125 8.29018 28.5588
rtibia 6.67916e-014
rfoot -1.23358 10.4684
rtoes 12.3318
lfemur -33.4134 -6.13292 -13.6594
ltibia 27.693
lfoot -4.37795 2.39335
ltoes -0.920239
